<?xml version="1.0" encoding="utf-8"?>
<!-- Generator: Adobe Illustrator 16.0.0, SVG Export Plug-In . SVG Version: 6.00 Build 0)  -->
<!DOCTYPE svg PUBLIC "-//W3C//DTD SVG 1.1//EN" "http://www.w3.org/Graphics/SVG/1.1/DTD/svg11.dtd">
<svg version="1.1" id="Layer_1" xmlns="http://www.w3.org/2000/svg" xmlns:xlink="http://www.w3.org/1999/xlink" x="0px" y="0px"
	 width="16.563px" height="27px" viewBox="0 0 16.563 27" enable-background="new 0 0 16.563 27" xml:space="preserve">
<g>
	<path fill="#50636A" d="M8.208,0.004C3.683,0.004,0,4.207,0,9.374c0,4.972,7.447,16.59,7.765,17.081l0.296,0.462
		c0.035,0.054,0.09,0.085,0.147,0.085c0.058,0,0.114-0.031,0.148-0.085l0.296-0.462c0.317-0.49,7.767-12.107,7.767-17.081
		C16.42,4.208,12.735,0.004,8.208,0.004z"/>
</g>
<g>
	<path fill="#FFFFFF" d="M5.533,13.297c-0.176,0.097-0.318,0.011-0.318-0.188V4.753c0-0.199,0.142-0.284,0.318-0.188l7.54,4.19
		c0.175,0.096,0.175,0.255,0,0.352L5.533,13.297z"/>
</g>
</svg>
