<?xml version="1.0" encoding="utf-8"?>
<!DOCTYPE svg PUBLIC "-//W3C//DTD SVG 1.1//EN" "http://www.w3.org/Graphics/SVG/1.1/DTD/svg11.dtd">
<svg version="1.1" id="Layer_1" xmlns="http://www.w3.org/2000/svg" xmlns:xlink="http://www.w3.org/1999/xlink" x="0px" y="0px"
	 width="30.665px" height="44.237px" viewBox="136.5 122.734 30.665 44.237" enable-background="new 136.5 122.734 30.665 44.237"
	 xml:space="preserve">
<g>
	<path fill="#12AED8" d="M151.83,122.734c-8.453,0-15.33,6.878-15.33,15.333c0,8.136,13.909,27.148,14.502,27.953l0.553,0.754
		c0.064,0.088,0.167,0.139,0.275,0.139c0.11,0,0.213-0.051,0.277-0.139l0.553-0.754c0.593-0.805,14.505-19.816,14.505-27.953
		C167.165,129.613,160.285,122.734,151.83,122.734z"/>
</g>
<g>
	<path fill="#FFFFFF" d="M149.431,143.794l-2.247,4.779c-0.263,0.561-0.933,0.805-1.495,0.538c-0.55-0.257-0.792-0.906-0.556-1.458
		l2.076-4.855c0.264-0.617,0.979-0.906,1.598-0.642c0.618,0.266,0.905,0.98,0.64,1.6
		C149.443,143.768,149.437,143.784,149.431,143.794z"/>
	<path fill="#FFFFFF" d="M147.381,131.298c-0.301-0.223-0.716-0.149-0.922,0.163l-0.719,1.089c-0.206,0.313-0.361,0.874-0.346,1.248
		l0.223,5.501c0.016,0.375,0.334,0.684,0.708,0.687l0.204,0.001c0.373,0.002,0.764-0.289,0.867-0.647l1.707-5.975
		c0.102-0.36-0.061-0.836-0.361-1.059L147.381,131.298z"/>
	<g>
		<path fill="#FFFFFF" d="M152.322,132.274c1.117,0.064,2.086-0.848,2.116-1.992c0.031-1.147-0.872-2.109-1.994-2.121
			c-1.114-0.013-2.065,0.943-2.06,2.069C150.388,131.308,151.249,132.214,152.322,132.274z"/>
		<path fill="#FFFFFF" d="M158.226,137.091l-6.508-4.046c-0.04-0.024-0.088-0.051-0.132-0.072c-0.638-0.3-1.396-0.03-1.703,0.603
			c-0.152,0.18-0.269,0.393-0.332,0.636l-1.311,5.06c-0.056,0.212-0.065,0.426-0.037,0.63c-0.078,0.488,0.1,1,0.514,1.332
			l3.622,2.888v3.991c0,0.621,0.505,1.125,1.124,1.125c0.62,0,1.124-0.504,1.124-1.125v-4.53c0-0.289-0.109-0.574-0.326-0.793
			l-0.05-0.046l-2.822-2.817l0.971-3.745l4.695,2.204l-0.613,10.325c-0.017,0.266,0.186,0.495,0.453,0.51
			c0.008,0.002,0.016,0.002,0.026,0.002c0.251,0,0.464-0.2,0.48-0.455l0.606-10.16c0.196-0.056,0.371-0.179,0.486-0.364
			C158.74,137.849,158.618,137.334,158.226,137.091z"/>
	</g>
</g>
</svg>
