<?xml version="1.0" encoding="utf-8"?>
<!-- Generator: Adobe Illustrator 16.0.0, SVG Export Plug-In . SVG Version: 6.00 Build 0)  -->
<!DOCTYPE svg PUBLIC "-//W3C//DTD SVG 1.1//EN" "http://www.w3.org/Graphics/SVG/1.1/DTD/svg11.dtd">
<svg version="1.1" id="Layer_1" xmlns="http://www.w3.org/2000/svg" xmlns:xlink="http://www.w3.org/1999/xlink" x="0px" y="0px"
	 width="224.186px" height="164px" viewBox="0 0 224.186 164" enable-background="new 0 0 224.186 164" xml:space="preserve">
<path fill="#50636A" d="M220.582,164l-57.863-80.243l-35.293,49.241L71.563,21.072L0,164h143.099l0,0H220.582z M162.718,96.968
	l18.967,25.756l-12.813-4.811l-4.509,7.219l-9.745-5.764l-14.549,9.172L162.718,96.968z M80.581,82.132l-9.018,13.109L62.51,82.993
	l-14.644,8.818L71.563,44.75l29.042,57.915L80.581,82.132z"/>
<g>
	<path fill="#50636A" d="M146.368,15.434c0,4.984-1.711,9.025-5.132,12.125c-3.421,3.1-7.984,4.872-13.687,5.318l-0.223,5.058h-3.31
		V23.468c3.595-0.298,6.409-1.432,8.442-3.403c2.033-1.971,3.05-4.655,3.05-8.052c0-2.702-0.713-4.866-2.138-6.49
		c-1.426-1.624-3.342-2.436-5.746-2.436c-1.017,0-1.922,0.106-2.715,0.316c-0.793,0.211-1.562,0.54-2.306,0.986
		c0.248,0.793,0.54,1.816,0.874,3.068c0.335,1.252,0.502,2.412,0.502,3.477c0,1.736-0.564,3.081-1.692,4.035
		c-1.129,0.955-2.696,1.432-4.705,1.432c-1.884,0-3.366-0.595-4.444-1.785c-1.078-1.19-1.618-2.653-1.618-4.389
		c0-2.851,1.624-5.269,4.872-7.252C119.64,0.992,123.557,0,128.145,0c5.43,0,9.824,1.413,13.184,4.24
		C144.688,7.066,146.368,10.798,146.368,15.434z M132.979,48.2c0,1.884-0.713,3.502-2.139,4.854s-3.093,2.027-5.002,2.027
		c-1.934,0-3.614-0.676-5.04-2.027c-1.426-1.351-2.139-2.969-2.139-4.854c0-1.884,0.712-3.515,2.139-4.891
		c1.425-1.376,3.105-2.064,5.04-2.064c1.909,0,3.576,0.688,5.002,2.064S132.979,46.316,132.979,48.2z"/>
</g>
</svg>
